<?xml version="1.0" encoding="iso-8859-1"?>
<!-- Generator: Adobe Illustrator 19.0.0, SVG Export Plug-In . SVG Version: 6.00 Build 0)  -->
<svg version="1.1" id="Capa_1" xmlns="http://www.w3.org/2000/svg" xmlns:xlink="http://www.w3.org/1999/xlink" x="0px" y="0px"
	 viewBox="0 0 480.027 480.027" style="enable-background:new 0 0 480.027 480.027;" xml:space="preserve">
<g>
	<g>
		<path d="M479.682,181.755c0-0.104-0.104-0.2-0.136-0.312c-0.194-0.615-0.463-1.203-0.8-1.752l-0.056-0.12l-33.52-49.44
			c0.688-1.152,1.376-2.312,2.064-3.624l1.016-1.952c1.438-2.871,2.676-5.838,3.704-8.88l0.224-0.8
			c0.943-3.031,1.688-6.12,2.232-9.248l0.192-1.048c0.545-3.374,0.847-6.783,0.904-10.2v-0.088
			c0.044-3.388-0.146-6.774-0.568-10.136c-0.452-3.46-1.155-6.882-2.104-10.24c-1.92-6.767-4.832-13.213-8.64-19.128v-0.056
			c-2.211-3.401-4.703-6.613-7.448-9.6l-0.352-0.368c-2.814-3.04-5.893-5.824-9.2-8.32c-2.772-2.045-5.686-3.889-8.72-5.52
			l-1.368-0.744c-2.772-1.433-5.634-2.683-8.568-3.744l-1.6-0.512c-2.828-0.94-5.711-1.706-8.632-2.296l-0.904-0.2
			c-3.052-0.539-6.136-0.881-9.232-1.024l-1.872-0.064c-3.369-0.09-6.74,0.06-10.088,0.448c-3.064,0.383-6.102,0.954-9.096,1.712
			l-1.136,0.272c-2.975,0.818-5.896,1.822-8.744,3.008l-1.6,0.704c-2.952,1.294-5.812,2.788-8.56,4.472
			c-2.547,1.616-4.991,3.387-7.32,5.304l-1.6,1.368c-2.343,2.004-4.553,4.158-6.616,6.448l-13.76,15.416
			c-0.448-1.976-0.944-3.856-1.512-5.648c-1.123-3.496-2.489-6.91-4.088-10.216l-0.736-1.52c-1.621-3.256-3.462-6.396-5.512-9.4
			c-1.68-2.417-3.491-4.74-5.424-6.96l-1.28-1.408c-1.6-1.749-3.251-3.419-4.952-5.008l-1.648-1.496
			c-1.824-1.6-3.728-3.112-6.024-4.8l-0.992-0.704c-2.544-1.774-5.189-3.401-7.92-4.872c-2.538-1.345-5.147-2.553-7.816-3.616
			l-2.456-0.912c-1.992-0.72-4-1.376-6.064-1.944c-0.992-0.283-1.984-0.549-2.976-0.8c-2.056-0.488-4.16-0.864-6.272-1.192
			l-0.8-0.136c-0.664-0.104-1.328-0.208-1.992-0.288c-5.781-0.7-11.622-0.757-17.416-0.168c-1.08,0.112-2.144,0.28-3.2,0.464
			l-2.08,0.32c-0.896,0.12-1.784,0.248-2.64,0.424c-1.984,0.408-3.912,0.944-6.224,1.6c-0.472,0.112-0.944,0.232-1.416,0.376
			c-2.216,0.688-4.376,1.496-6.4,2.336c-0.168,0.056-0.728,0.264-0.896,0.336c-2.328,0.984-4.608,2.08-6.976,3.344
			c-6.544,3.519-12.552,7.956-17.84,13.176c-0.088,0.072-0.144,0.176-0.232,0.256s-0.216,0.136-0.304,0.232
			c-7.342,7.308-13.209,15.962-17.28,25.488c-0.92,2.168-1.72,4.392-2.4,6.496c-0.072,0.184-0.264,0.712-0.32,0.904
			c-0.64,2.048-1.144,4.144-1.672,6.448c-0.056,0.184-0.28,1.064-0.312,1.248c-0.032,0.184-0.048,0.288-0.08,0.432
			c-0.152-0.232-0.296-0.48-0.456-0.704l-1.16-1.608c-0.568-0.88-1.144-1.768-1.76-2.592c-0.936-1.264-1.952-2.456-2.976-3.64
			l-0.736-0.88c-0.392-0.48-0.8-0.952-1.2-1.416c-1.376-1.496-2.824-2.896-4.528-4.48c-0.112-0.104-0.728-0.704-0.84-0.8
			c-1.688-1.496-3.456-2.904-5.8-4.648c-1.952-1.416-4-2.728-6.168-4c-4.258-2.479-8.746-4.542-13.4-6.16
			c-4.828-1.688-9.821-2.863-14.896-3.504c-0.214-0.048-0.43-0.082-0.648-0.104c-2.679-0.326-5.373-0.513-8.072-0.56
			c-2.4,0-4.8,0.072-7.344,0.272l-0.8,0.056c-2.232,0.208-4.464,0.568-6.896,1.016l-1.208,0.208c-2.056,0.432-4.104,1-6.584,1.728
			c-0.464,0.12-0.928,0.248-1.384,0.4c-1.976,0.64-3.928,1.44-6.296,2.4c-0.488,0.184-0.984,0.376-1.488,0.6
			c-2.565,1.175-5.065,2.489-7.488,3.936c-3.597,2.192-7.009,4.675-10.2,7.424c-0.104,0.088-0.8,0.648-0.872,0.736
			c-2.94,2.609-5.671,5.445-8.168,8.48l-0.872,1.064c-2.369,2.988-4.509,6.152-6.4,9.464l-0.56,1.024
			c-1.913,3.453-3.548,7.054-4.888,10.768v0.04c-0.842,2.362-1.566,4.765-2.168,7.2l-0.32,1.224c-0.464,2.008-0.856,4-1.16,6.08
			l-0.224,1.888c-0.224,1.84-0.384,3.68-0.48,5.552l-0.064,2.312c0,1.728,0,3.456,0.104,5.208l0.176,2.56
			c0.152,1.664,0.376,3.312,0.728,5.6l0.352,2.064c0.32,1.6,0.728,3.248,1.328,5.528c0.168,0.68,0.344,1.352,0.544,2.008
			c0.52,1.704,1.152,3.392,2.032,5.704c0.2,0.568,0.408,1.128,0.64,1.664c1.031,2.441,2.19,4.826,3.472,7.144l3.832,6.896
			L2.626,178.107c-3.268,2.973-3.508,8.033-0.534,11.301c0.085,0.094,0.173,0.185,0.262,0.275L163.21,350.555
			c2.36,4.915,5.971,9.122,10.472,12.2L120.85,468.451c-1.975,3.952-0.372,8.757,3.58,10.732c1.112,0.555,2.337,0.844,3.58,0.844
			h216c4.418,0,8-3.583,7.999-8.001c0-1.083-0.22-2.155-0.647-3.151L305.97,362.947c4.661-3.078,8.406-7.356,10.84-12.384
			l160.872-160.88c0.152-0.152,0.248-0.344,0.392-0.512c0.144-0.168,0.416-0.424,0.592-0.68c0.048-0.08,0.072-0.176,0.12-0.256
			c0.25-0.419,0.459-0.861,0.624-1.32c0.096-0.256,0.232-0.488,0.304-0.752c0.13-0.525,0.211-1.06,0.24-1.6
			c0-0.192,0.064-0.376,0.064-0.568C480.013,183.236,479.9,182.482,479.682,181.755z M454.234,172.067l-33.496-7.128l10.4-14.736
			l4.208-5.944L454.234,172.067z M431.602,80.203c1.344-1.28,2.68-2.576,3.928-4c0.272-0.312,0.536-0.64,0.888-1.096
			c0.36,1.048,0.696,2.104,1,3.2c0.734,2.623,1.268,5.297,1.6,8c0.324,2.574,0.468,5.167,0.432,7.76v0.424
			c-0.068,2.527-0.303,5.048-0.704,7.544l-0.216,1.112c-0.462,2.522-1.085,5.013-1.864,7.456c-0.801,2.352-1.763,4.645-2.88,6.864
			l-0.8,1.488c-1.197,2.31-2.558,4.532-4.072,6.648l-5.448,7.704l-1.44,2.024c-0.576-0.288-1.16-0.568-1.72-0.872
			c-4.69-2.419-9.246-5.09-13.648-8l-0.088-0.048c-2.904-1.952-5.68-4-8.376-6.144c-1.68-1.344-3.288-2.832-4.92-4.28
			c-0.992-0.88-2.024-1.688-3-2.616c-0.68-0.648-1.344-1.328-2.008-2c-1.208-1.224-2.4-2.512-3.688-3.904l-0.896-0.968
			c-0.568-0.648-1.12-1.328-1.672-1.992c-1.2-1.44-2.4-2.936-3.736-4.704c-0.184-0.256-0.336-0.504-0.512-0.8h0.096l2.488-0.056
			c1.08,0,2.16-0.064,3.288-0.12l2.984-0.232c1.04-0.088,2.088-0.192,3.2-0.32c0.952-0.112,1.904-0.248,2.864-0.384l0.448-0.064
			c0.8-0.12,1.6-0.272,2.608-0.456l0.448-0.072l0.288-0.064h0.128c1.088-0.2,2.184-0.4,3.272-0.656
			c0.656-0.152,1.304-0.336,2.72-0.72c1.736-0.464,3.368-0.952,4.96-1.48c1.768-0.592,3.472-1.216,5.128-1.912
			c1.448-0.616,2.864-1.328,4.8-2.304l0.12-0.064c0.568-0.288,1.128-0.568,1.688-0.88c1.424-0.8,2.808-1.68,4.208-2.608
			c0.72-0.472,1.432-0.96,2.152-1.488c1.384-1,2.736-2.064,4.08-3.2C430.266,81.467,430.746,81.011,431.602,80.203z M359.338,44.403
			c0.848-0.456,1.808-0.912,2.84-1.368l1.176-0.528c2.215-0.931,4.489-1.714,6.808-2.344l1.144-0.272
			c2.43-0.608,4.897-1.062,7.384-1.36c2.405-0.245,4.824-0.331,7.24-0.256l1.44,0.048c2.359,0.117,4.707,0.385,7.032,0.8
			l0.944,0.216c2.21,0.444,4.39,1.024,6.528,1.736l1.216,0.392c2.264,0.815,4.472,1.78,6.608,2.888l1.384,0.76
			c2.254,1.216,4.419,2.59,6.48,4.112c2.644,2.008,5.106,4.243,7.36,6.68c1.064,1.176,2.088,2.4,3.048,3.64
			c-0.056,0.096-0.104,0.2-0.168,0.296c-1.076,1.694-2.257,3.318-3.536,4.864l-0.328,0.424l-0.408,0.528
			c-0.928,1.056-1.92,2-3.32,3.328l-0.928,0.864c-0.976,0.84-1.984,1.6-2.992,2.4l-1.6,1.112c-1.032,0.68-2.064,1.352-3.144,1.952
			l-0.392,0.2l-1.432,0.728l-1.184,0.584c-0.688,0.344-1.36,0.696-2.08,0.992c-1.176,0.496-2.4,0.96-3.712,1.4
			s-2.696,0.848-4.2,1.248l-2.216,0.592c-0.992,0.232-1.976,0.416-3.024,0.6l-0.904,0.16c-0.536,0.104-1.08,0.208-1.6,0.288
			c-0.936,0.152-1.864,0.264-2.744,0.368l-5.224,0.464c-0.976,0.056-1.912,0.08-2.832,0.112h-0.84h-1.288
			c-1.472,0-2.936,0-4.304-0.064l-5.336-0.472c-0.448-0.992-0.96-1.992-1.368-2.968l-0.384-0.88c-0.8-2.024-1.528-4-2.168-5.928
			c-0.08-0.24-0.16-0.456-0.24-0.696l-0.264-0.8c-0.629-2-1.181-3.949-1.656-5.848l-0.24-1.016
			c-0.456-1.928-0.856-3.808-1.248-6.072c-0.296-1.768-0.544-3.456-0.8-5.6c-0.176-1.6-0.304-3.136-0.432-5.24
			c-0.048-0.904-0.072-1.776-0.096-2.712V44.403z M320.01,83.067l23.488-26.4c0.192-0.224,0.4-0.448,0.6-0.664
			c0.056,0.408,0.12,0.864,0.176,1.288c0.056,0.424,0.088,0.648,0.136,0.984c0.136,0.904,0.288,1.888,0.472,2.976l0.048,0.296
			c0.36,2.08,0.8,4.272,1.408,6.736l0.232,0.96c0.184,0.736,0.44,1.528,0.648,2.288c0.408,1.496,0.8,2.984,1.288,4.544l0.432,1.344
			c0.8,2.4,1.664,4.8,2.672,7.288l0.44,1.016c1.104,2.632,2.304,5.304,3.696,8c1.2,2.328,2.552,4.688,4.104,7.24l0.752,1.216
			c1.2,1.912,2.56,3.912,4.168,6.136c0.232,0.328,0.424,0.656,0.664,0.976l0.496,0.648c1.792,2.4,3.704,4.76,6.2,7.616
			c1.104,1.24,2.24,2.472,3.48,3.752c1.248,1.288,2.592,2.616,4.104,4.056c0.376,0.352,0.8,0.68,1.192,1.032
			c5.327,4.929,11.03,9.436,17.056,13.48c3.2,2.12,6.528,4.128,9.976,6.088c0.8,0.448,1.6,0.888,2.4,1.328s1.536,0.888,2.344,1.312
			l-6.944,9.824l-2.04,2.888l-83.688-17.808V83.067z M209.738,23.635c1.776-0.944,3.592-1.832,5.344-2.568l0.76-0.28
			c1.831-0.759,3.701-1.424,5.6-1.992l1.072-0.272c1.536-0.44,3.064-0.88,4.664-1.2c0.52-0.112,1.048-0.176,1.6-0.248l2.608-0.4
			c0.696-0.12,1.4-0.248,2.136-0.32c4.648-0.456,9.331-0.408,13.968,0.144l2.216,0.344c1.696,0.256,3.376,0.56,5.04,0.952
			c0.8,0.192,1.6,0.392,2.4,0.608c1.648,0.456,3.264,0.976,4.8,1.552l2,0.728c2.185,0.867,4.322,1.853,6.4,2.952
			c2.273,1.233,4.466,2.606,6.568,4.112l0.688,0.52c1.6,1.136,3.096,2.344,4.552,3.624l1.32,1.2c1.384,1.28,2.704,2.616,3.944,4
			l1.056,1.16c0.48,0.56,0.96,1.128,1.424,1.704c-0.8,1.448-1.536,2.904-2.4,4.288c-0.64,1.008-1.224,2.056-1.904,3.032
			c-2.061,2.974-4.345,5.788-6.832,8.416l-0.088,0.104c-1.344,1.384-2.712,2.712-4.232,4.064c-0.84,0.744-1.768,1.472-2.664,2.2
			c-0.616,0.504-1.176,1.008-1.848,1.528c-1.496,1.152-3.024,2.248-4.728,3.384c-0.904,0.6-1.832,1.144-2.752,1.712
			c-3.32-0.304-6.584-0.64-9.6-1.112c-1.024-0.168-1.968-0.4-2.968-0.584c-2.352-0.44-4.656-0.896-6.8-1.424
			c-1.896-0.48-3.704-1.032-5.496-1.6c-0.984-0.304-1.992-0.592-2.92-0.92c-2.12-0.736-4.152-1.536-6.12-2.4
			c-0.408-0.176-0.8-0.344-1.216-0.528c-2.224-1.01-4.395-2.134-6.504-3.368c-6.356-3.666-11.942-8.529-16.448-14.32
			c-0.656-0.888-1.264-1.768-1.816-2.624l-0.504-0.8c-0.376-0.624-0.8-1.32-1.256-2.208c-0.144-0.272-0.264-0.48-0.44-0.8
			c-0.698-1.382-1.323-2.8-1.872-4.248l-0.08-0.304C201.895,28.442,205.693,25.824,209.738,23.635z M176.394,73.155
			c0-0.128,0.152-0.968,0.168-1.096c0.216-1.68,0.424-3.352,0.8-5.112c0-0.136,0.224-0.864,0.256-1c0.384-1.696,0.8-3.384,1.224-4.8
			l0.296-0.8c0.595-1.884,1.283-3.737,2.064-5.552c1.552-3.576,3.426-7.004,5.6-10.24c0.384,0.712,0.888,1.536,1.408,2.4
			c0.08,0.136,0.152,0.272,0.24,0.416l0.08,0.128l0.072,0.128l0.504,0.8c0.744,1.16,1.552,2.336,2.352,3.408l0.432,0.576l0.24,0.312
			c0.752,0.984,1.6,1.992,2.48,3.008c0.4,0.464,0.816,0.928,1.248,1.392c0.544,0.6,1.128,1.192,1.728,1.792
			c0.896,0.912,1.864,1.816,2.872,2.72c0.52,0.472,1.04,0.944,1.6,1.408c0.752,0.632,1.536,1.264,2.352,1.888
			c0.52,0.4,1.064,0.8,1.6,1.2c1.397,1.024,2.88,2.027,4.448,3.008c0.688,0.44,1.376,0.872,2.096,1.296
			c0.944,0.552,1.912,1.096,2.92,1.6c1.008,0.504,1.84,0.952,2.792,1.416c1.376,0.672,2.792,1.328,4.28,1.968
			c1.296,0.552,2.616,1.104,4,1.6c0.968,0.368,1.952,0.72,2.968,1.064c1.685,0.587,3.437,1.139,5.256,1.656
			c0.472,0.136,0.88,0.296,1.36,0.432c-0.416,0.128-0.8,0.296-1.208,0.424c-3.448,1.064-7.12,1.92-10.808,2.776
			c-1.832,0.424-3.552,0.944-5.448,1.32c-5.696,1.12-11.616,2.048-17.832,2.704c-5.6,0.592-11.272,0.976-17.184,1.16l-4.128,0.08
			h-0.8h-2.704l-0.008-8.608C176.009,77.731,176.137,75.437,176.394,73.155z M176.01,104.827h2.808h0.904l4.8-0.104
			c6.056-0.184,12.12-0.6,18.032-1.224c16.919-1.619,33.529-5.588,49.352-11.792c0.728-0.296,1.544-0.512,2.264-0.8
			c4.667-1.983,9.209-4.248,13.6-6.784c0.144-0.08,0.312-0.144,0.456-0.224c1.944-1.128,3.856-2.32,5.904-3.68
			c1.856-1.24,3.672-2.544,5.6-4c1.792-1.384,3.544-2.824,5.328-4.416s3.408-3.16,5.04-4.856c0.08-0.088,0.144-0.176,0.224-0.256
			c1.6-1.685,3.144-3.435,4.632-5.248c0.264-0.32,0.488-0.664,0.744-0.992c1.184-1.504,2.4-3.016,3.44-4.592
			c0.728,1.712,1.336,3.352,1.856,4.976c0.85,2.756,1.508,5.568,1.968,8.416l0.312,2.024c0.449,2.897,0.695,5.821,0.736,8.752
			v60.072l-101.208-21.528l-26.792-5.704V104.827z M115.842,91.083v0.024c1.232-2.152,2.4-4.352,3.448-6.592
			c1.313-2.798,2.486-5.66,3.512-8.576c0.088-0.24,0.184-0.448,0.264-0.696c0.728-2.128,1.36-4.32,1.96-6.616
			c0.192-0.736,0.392-1.44,0.576-2.216l0.096-0.376v-0.112l0.088-0.344c0.304-1.336,0.56-2.672,0.8-4.072
			c0.24-1.4,0.456-2.832,0.656-4.384l0.192-1.32c0.096-0.848,0.176-1.704,0.248-2.56l0.36,0.208c1.786,1.05,3.514,2.195,5.176,3.432
			c1.416,1.048,2.8,2.144,4.312,3.504l0.664,0.64c1.16,1.072,2.296,2.16,3.36,3.312l1.6,1.912c0.8,0.888,1.536,1.784,2.256,2.744
			c0.408,0.56,0.8,1.144,1.168,1.736l1.32,1.992c0.32,0.464,0.64,0.928,0.928,1.408c1.081,1.831,2.066,3.716,2.952,5.648
			l8.232,18.368v11.32l-21.36-4.544l-27.944-5.944l0.072-0.096c0.368-0.48,0.72-0.96,1.04-1.408
			c0.656-0.952,1.288-1.912,1.944-2.952C114.418,93.483,115.106,92.347,115.842,91.083z M46.45,75.675l0.424-0.8
			c1.49-2.615,3.18-5.111,5.056-7.464l0.8-0.968c4.655-4.69,9.665-9.015,14.984-12.936c2.046-1.216,4.165-2.306,6.344-3.264
			l1.104-0.432c1.63-0.718,3.296-1.351,4.992-1.896l1.008-0.28c1.6-0.48,3.2-0.944,5.056-1.312l0.896-0.152
			c1.744-0.328,3.496-0.608,5.112-0.8l0.848-0.048c1.995-0.176,3.998-0.243,6-0.2c2.027,0.043,4.04,0.181,6.04,0.416
			c2.316,0.288,4.613,0.71,6.88,1.264c0,0.8,0,1.68-0.08,2.528c0,0.288,0,0.568-0.04,0.856c-0.088,1.344-0.216,2.728-0.384,4.224
			c0,0.064-0.056,0.36-0.096,0.632l-0.048,0.328c-0.296,2.216-0.64,4.416-1.128,6.576l-0.152,0.6l-0.096,0.376
			c-0.584,2.478-1.297,4.924-2.136,7.328v0.08c-0.568,1.6-1.28,3.2-1.96,4.8c-5.657,2.829-11.684,4.846-17.904,5.992
			c-2.832,0.352-5.28,0.568-6.536,0.664c-7.453,0.464-14.934,0.142-22.32-0.96c-0.592-0.12-1.24-0.208-1.8-0.336l-0.92-0.2
			c-0.6-0.136-1.208-0.272-1.888-0.448c-0.089-0.028-0.18-0.049-0.272-0.064l-1.816-0.472l-0.952-0.256l-3.2-0.976
			c-0.872-0.28-1.712-0.56-2.584-0.864C45.914,76.675,46.178,76.179,46.45,75.675z M39.186,101.515
			c0.064-1.456,0.192-2.912,0.424-4.84l0.12-1.016c0.168-1.136,0.376-2.272,0.616-3.4c0.944,0.336,1.944,0.664,2.984,1.008
			l1.048,0.336h0.064c0.704,0.224,1.504,0.448,2.4,0.704l0.312,0.088l0.592,0.168l0.44,0.12l0.56,0.152l0.304,0.08
			c0.376,0.104,0.8,0.192,1.176,0.288c0.864,0.216,1.728,0.432,2.632,0.64l1.144,0.248h0.12c2.76,0.592,5.808,1.088,9.016,1.48
			c0.8,0.096,1.6,0.128,2.4,0.208c2.568,0.248,5.208,0.416,8,0.456c0.488,0,0.92,0.088,1.408,0.088c1.824,0,3.688-0.072,5.6-0.192
			c0.592,0,1.184-0.088,1.792-0.136c2.951-0.237,5.888-0.624,8.8-1.16c0.248-0.04,0.48-0.048,0.736-0.096
			c-0.472,0.504-0.896,1.04-1.384,1.528l-42,38.152l-2.04-3.608c-1.016-1.832-1.932-3.717-2.744-5.648l-0.672-1.8
			c-0.504-1.312-1.008-2.64-1.416-4l-0.336-1.248l-0.216-0.8c-0.344-1.28-0.672-2.56-0.92-3.832l-0.344-2.104
			c-0.208-1.312-0.384-2.616-0.496-3.904l-0.096-2.048c-0.064-1.368-0.104-2.728-0.08-4.08L39.186,101.515z M188.954,368.027h36.112
			l-17.528,26.28c-10.549,15.841-27.38,26.404-46.232,29.016L188.954,368.027z M176.01,337.091v-2.128
			c0.004-8.247,6.689-14.932,14.936-14.936h4.8c4.995-0.003,9.66,2.496,12.424,6.656l16.888,25.344h-34.112
			c-1.476-0.021-2.94-0.264-4.344-0.72l-9.872-9.872C176.274,340.031,176.031,338.567,176.01,337.091z M331.874,464.027h-190.92
			l12-24.064c27.318-0.278,52.728-14.057,67.864-36.8l19.192-28.736l19.2,28.8c14.057,21.055,37.006,34.487,62.248,36.432
			L331.874,464.027z M314.058,422.427c-17.013-3.582-31.946-13.685-41.6-28.144l-17.504-26.256h35.784L314.058,422.427z
			 M254.962,352.003l16.896-25.344c2.77-4.151,7.434-6.641,12.424-6.632h4.8c8.244,0.009,14.924,6.692,14.928,14.936v2.128
			c-0.021,1.476-0.264,2.94-0.72,4.344l-9.872,9.848c-1.404,0.456-2.868,0.699-4.344,0.72H254.962z M318.578,326.123
			c-3.878-13.071-15.87-22.052-29.504-22.096h-4.8c-10.345-0.01-20.007,5.162-25.736,13.776l-18.528,27.824l-18.536-27.8
			c-5.723-8.623-15.386-13.805-25.736-13.8h-4.8c-13.641,0.047-25.634,9.039-29.504,22.12L19.602,184.307l78.712-71.6l339.136,72.12
			l18.488,3.936L318.578,326.123z"/>
	</g>
</g>
<g>
</g>
<g>
</g>
<g>
</g>
<g>
</g>
<g>
</g>
<g>
</g>
<g>
</g>
<g>
</g>
<g>
</g>
<g>
</g>
<g>
</g>
<g>
</g>
<g>
</g>
<g>
</g>
<g>
</g>
</svg>
